<svg width="16" height="16" viewBox="0 0 16 16" fill="none" xmlns="http://www.w3.org/2000/svg">
<g id="icon_study">
<path id="Vector (Stroke)" fill-rule="evenodd" clip-rule="evenodd" d="M4 2C3.44772 2 3 2.44772 3 3V10.1707C3.31278 10.0602 3.64936 10 4 10H13V2H4ZM15 1C15 0.447715 14.5523 0 14 0H4C2.34315 0 1 1.34315 1 3V13C1 14.6569 2.34315 16 4 16H14C14.5523 16 15 15.5523 15 15V1ZM3 13C3 13.5523 3.44772 14 4 14H13V12H4C3.44772 12 3 12.4477 3 13ZM5 5C5 4.44772 5.44772 4 6 4H10C10.5523 4 11 4.44772 11 5C11 5.55228 10.5523 6 10 6H6C5.44772 6 5 5.55228 5 5Z" fill="#212121"/>
</g>
</svg>
